 <svg  version="1.0" xmlns="http://www.w3.org/2000/svg"  width="300.000000pt" height="392.000000pt" viewBox="0 0 300.000000 392.000000"  preserveAspectRatio="xMidYMid meet">  <g transform="translate(0.000000,392.000000) scale(0.100000,-0.100000)" fill="#ffffff" stroke="none"> <path d="M1261 3880 l-21 -40 24 0 c54 0 62 16 31 63 -11 16 -15 14 -34 -23z"/> <path d="M2446 3881 c-25 -27 -13 -59 20 -55 32 3 42 13 25 23 -8 5 -11 17 -6 30 8 27 -15 28 -39 2z"/> <path d="M630 3883 c0 -5 5 -15 10 -23 7 -12 9 -10 7 8 -1 19 -17 33 -17 15z"/> <path d="M1134 3830 c0 -13 4 -16 10 -10 7 7 7 13 0 20 -6 6 -10 3 -10 -10z"/> <path d="M1195 3828 c-19 -22 -19 -22 -1 -8 18 14 19 13 13 -3 -4 -10 -7 -21 -7 -23 0 -3 -4 -2 -10 1 -11 7 -13 -9 -15 -125 -1 -82 2 -103 16 -94 5 2 8 46 7 97 -2 58 2 104 11 124 18 43 10 60 -14 31z"/> <path d="M2525 3808 c7 -20 17 -214 16 -288 0 -14 0 -43 0 -65 1 -45 -1 -255 -2 -270 0 -5 0 -50 1 -100 1 -49 1 -126 1 -170 0 -44 0 -126 2 -182 1 -55 -1 -99 -4 -97 -4 2 -10 -4 -14 -13 -3 -10 -1 -19 6 -22 8 -2 8 -5 -1 -11 -8 -5 -10 -15 -6 -26 6 -15 12 -6 26 36 15 44 18 73 13 146 -3 49 -1 106 5 126 6 20 7 40 4 43 -4 4 -8 158 -9 343 -1 185 -2 365 -3 399 -1 35 1 67 4 72 3 5 -1 22 -9 37 -8 16 -15 37 -15 47 0 9 -5 17 -11 17 -7 0 -9 -8 -4 -22z"/> <path d="M2940 3790 c0 -5 5 -10 10 -10 6 0 10 5 10 10 0 6 -4 10 -10 10 -5 0 -10 -4 -10 -10z"/> <path d="M1105 3708 c-3 -13 -1 -52 4 -88 l8 -65 1 88 c0 88 -3 106 -13 65z"/> <path d="M699 3653 c-2 -16 -1 -48 2 -73 5 -39 6 -35 7 28 2 73 -3 95 -9 45z"/> <path d="M1185 3383 c3 -98 8 -191 9 -208 1 -16 4 -52 5 -80 3 -48 4 -49 10 -15 4 19 6 53 4 75 -2 34 -10 274 -12 373 -1 17 -6 32 -12 32 -8 0 -9 -49 -4 -177z"/> <path d="M702 3510 c0 -14 2 -19 5 -12 2 6 2 18 0 25 -3 6 -5 1 -5 -13z"/> <path d="M1105 3521 c-3 -5 -1 -12 5 -16 5 -3 10 1 10 9 0 18 -6 21 -15 7z"/> <path d="M1107 3348 c1 -61 6 -115 11 -120 5 -5 7 42 6 103 -1 61 -6 115 -11 120 -5 5 -8 -37 -6 -103z"/> <path d="M1111 3079 c1 -54 4 -78 11 -71 5 5 10 21 9 33 0 13 -1 43 0 66 0 23 -5 44 -11 48 -6 4 -10 -22 -9 -76z"/> <path d="M228 3043 c7 -3 16 -2 19 1 4 3 -2 6 -13 5 -11 0 -14 -3 -6 -6z"/> <path d="M1195 3004 c-4 -22 -2 -41 4 -47 8 -8 11 3 11 36 0 56 -5 60 -15 11z"/> <path d="M1116 2806 c3 -89 5 -167 6 -173 2 -23 18 -13 18 11 0 34 60 110 90 115 14 1 27 6 30 10 3 3 16 12 28 19 20 11 29 11 57 -2 23 -11 40 -13 57 -7 20 7 18 9 -15 8 -47 -1 -66 21 -34 38 13 7 29 8 39 3 20 -10 68 -7 68 5 0 5 -15 6 -32 2 -25 -5 -29 -4 -18 4 13 9 13 11 -2 11 -10 0 -18 5 -18 10 0 14 38 12 85 -5 46 -16 65 -18 65 -7 0 5 -18 15 -40 22 -25 8 -36 16 -29 21 7 4 18 5 25 2 7 -2 15 4 18 14 4 13 16 18 43 18 21 -1 59 3 85 8 51 8 88 -3 88 -28 0 -7 13 -16 30 -20 16 -4 32 -11 35 -16 4 -5 21 -9 40 -9 25 0 39 -7 55 -27 11 -15 29 -28 38 -29 9 -2 28 -16 43 -31 14 -15 43 -44 65 -63 27 -25 39 -43 38 -61 -1 -34 38 -79 71 -79 19 0 25 5 25 23 0 23 -17 47 -33 47 -5 0 -1 -7 7 -16 14 -13 14 -17 2 -30 -19 -18 -30 -18 -22 1 3 9 0 15 -9 15 -8 0 -15 5 -15 11 0 5 5 7 10 4 6 -3 10 -1 10 4 0 6 -7 11 -15 11 -8 0 -15 3 -16 8 -3 33 -13 51 -46 84 -64 64 -174 148 -194 148 -10 0 -52 18 -94 40 -65 34 -82 39 -124 35 -65 -5 -129 -22 -168 -45 -18 -11 -50 -24 -72 -30 -22 -6 -63 -29 -92 -53 -28 -23 -59 -46 -68 -52 -9 -5 -33 -23 -53 -38 l-38 -29 -2 66 c-2 100 -2 100 -13 108 -6 5 -5 12 3 20 17 17 16 65 -2 65 -12 0 -14 -26 -10 -161z"/> <path d="M1190 2915 c1 -26 2 -28 11 -12 8 14 8 22 0 30 -8 8 -11 3 -11 -18z"/> <path d="M1680 2920 c8 -5 22 -9 30 -9 10 0 8 3 -5 9 -27 12 -43 12 -25 0z"/> <path d="M1536 2901 c-11 -4 -15 -10 -9 -14 5 -3 19 0 29 8 20 15 11 18 -20 6z"/> <path d="M1601 2901 c-9 -6 -10 -10 -2 -16 7 -4 18 -2 25 4 7 6 28 8 47 5 26 -4 30 -3 19 5 -18 13 -70 14 -89 2z"/> <path d="M1189 2860 c0 -3 -2 -13 -4 -22 -2 -10 1 -20 6 -24 14 -8 23 26 10 39 -6 6 -11 9 -12 7z"/> <path d="M1670 2856 c0 -2 9 -6 20 -9 11 -3 18 -1 14 4 -5 9 -34 13 -34 5z"/> <path d="M1590 2836 c4 -4 16 -4 26 2 16 9 14 10 -8 9 -15 -1 -23 -6 -18 -11z"/> <path d="M1775 2840 c27 -12 43 -12 25 0 -8 5 -22 9 -30 9 -10 0 -8 -3 5 -9z"/> <path d="M1548 2823 c6 -2 18 -2 25 0 6 3 1 5 -13 5 -14 0 -19 -2 -12 -5z"/> <path d="M1670 2823 c8 -3 34 -14 57 -24 46 -21 53 -22 53 -11 0 7 -99 43 -116 41 -5 0 -2 -3 6 -6z"/> <path d="M1850 2824 c0 -13 60 -77 66 -71 3 2 -11 22 -31 42 -19 21 -35 34 -35 29z"/> <path d="M1820 2790 c45 -39 57 -39 18 0 -16 17 -35 30 -41 30 -7 -1 4 -14 23 -30z"/> <path d="M2086 2794 c-7 -28 0 -46 12 -28 4 6 21 14 37 19 17 4 24 10 17 12 -6 3 -10 9 -6 14 3 5 -8 9 -24 9 -24 0 -31 -5 -36 -26z"/> <path d="M1490 2800 c0 -5 7 -10 16 -10 8 0 12 5 9 10 -3 6 -10 10 -16 10 -5 0 -9 -4 -9 -10z"/> <path d="M1590 2800 c8 -5 29 -10 45 -10 23 0 27 3 15 10 -8 5 -28 10 -45 10 -23 0 -27 -3 -15 -10z"/> <path d="M2225 2800 c-3 -5 -15 -10 -25 -10 -10 0 -22 -5 -26 -12 -4 -6 -3 -8 3 -5 6 4 18 -2 28 -13 17 -19 17 -20 1 -20 -9 0 -15 -4 -12 -8 3 -4 20 -6 39 -4 30 3 34 7 29 25 -3 12 -9 27 -13 33 -5 6 -6 14 -2 17 3 4 1 7 -5 7 -6 0 -14 -4 -17 -10z"/> <path d="M1920 2794 c0 -17 59 -91 94 -118 40 -30 46 -32 46 -11 0 13 -12 19 -32 16 -4 0 -20 18 -36 42 -33 47 -72 85 -72 71z"/> <path d="M1445 2780 c-3 -4 6 -10 20 -12 14 -3 25 -2 25 2 0 11 -39 20 -45 10z"/> <path d="M1576 2775 c10 -8 23 -15 28 -15 6 0 1 7 -10 15 -10 8 -23 15 -28 15 -6 0 -1 -7 10 -15z"/> <path d="M1676 2782 c-6 -10 30 -9 40 1 4 4 -2 7 -14 7 -11 0 -23 -4 -26 -8z"/> <path d="M1797 2769 c7 -7 15 -10 18 -7 3 3 -2 9 -12 12 -14 6 -15 5 -6 -5z"/> <path d="M1310 2760 c0 -5 7 -10 16 -10 8 0 12 5 9 10 -3 6 -10 10 -16 10 -5 0 -9 -4 -9 -10z"/> <path d="M1356 2748 c3 -5 20 -6 36 -3 19 5 28 3 24 -3 -3 -5 2 -16 12 -23 15 -13 16 -12 3 4 -7 9 -9 17 -4 17 8 0 53 -28 63 -40 10 -12 68 -50 77 -50 4 0 -7 13 -24 29 -18 15 -30 31 -26 35 3 3 -6 6 -21 6 -15 0 -25 4 -22 9 7 10 -34 23 -86 26 -22 2 -35 -1 -32 -7z"/> <path d="M1524 2749 c3 -15 36 -21 36 -7 0 6 -6 8 -14 5 -8 -3 -17 -2 -20 4 -2 5 -3 4 -2 -2z"/> <path d="M1710 2746 c0 -12 84 -89 100 -92 3 0 18 -6 34 -13 45 -18 42 -6 -4 17 -24 12 -36 22 -28 25 10 4 9 6 -2 6 -8 1 -32 17 -53 36 -42 39 -47 41 -47 21z"/> <path d="M1792 2735 c20 -14 40 -25 43 -25 3 0 -6 11 -21 25 -15 14 -34 25 -43 25 -9 0 1 -11 21 -25z"/> <path d="M2315 2751 c-11 -5 -23 -7 -27 -4 -14 8 -8 -7 10 -25 10 -10 23 -17 28 -15 6 2 9 -9 6 -27 -5 -37 4 -64 19 -54 8 4 7 9 -2 15 -10 6 -11 9 -1 9 6 0 12 9 12 20 0 11 11 27 24 36 27 17 25 43 -2 42 -9 0 -24 2 -32 5 -8 3 -24 2 -35 -2z"/> <path d="M1275 2743 c-25 -6 -73 -63 -52 -63 7 0 19 11 25 25 7 14 19 24 29 23 10 0 29 0 43 1 23 2 24 3 5 11 -22 9 -21 9 -50 3z"/> <path d="M1920 2720 c30 -23 14 -27 -18 -4 -12 8 -22 12 -22 9 0 -12 45 -44 63 -45 9 0 17 -4 17 -10 0 -5 10 -10 23 -11 21 -1 21 -1 -3 -8 l-25 -7 30 -16 c31 -17 90 -75 119 -118 11 -16 16 -19 16 -9 0 21 -51 90 -86 118 -16 13 -29 26 -29 30 0 9 -93 91 -103 91 -4 0 4 -9 18 -20z"/> <path d="M1199 2713 c-13 -16 -12 -17 4 -4 9 7 17 15 17 17 0 8 -8 3 -21 -13z"/> <path d="M1366 2716 c10 -8 21 -12 24 -10 5 6 -21 24 -34 24 -6 0 -1 -6 10 -14z"/> <path d="M1630 2715 c19 -7 44 -13 55 -13 13 0 7 5 -15 13 -19 7 -44 13 -55 13 -13 0 -7 -5 15 -13z"/> <path d="M2830 2711 c0 -6 5 -11 11 -11 5 0 7 -4 4 -10 -3 -5 -1 -10 4 -10 16 0 13 16 -4 30 -10 9 -15 9 -15 1z"/> <path d="M1260 2699 c0 -5 5 -7 10 -4 6 3 10 8 10 11 0 2 -4 4 -10 4 -5 0 -10 -5 -10 -11z"/> <path d="M1400 2700 c0 -6 7 -10 15 -10 8 0 15 2 15 4 0 2 -7 6 -15 10 -8 3 -15 1 -15 -4z"/> <path d="M1634 2686 c11 -9 24 -16 30 -16 12 0 7 5 -24 19 -24 11 -24 11 -6 -3z"/> <path d="M1848 2683 c7 -3 16 -2 19 1 4 3 -2 6 -13 5 -11 0 -14 -3 -6 -6z"/> <path d="M683 2660 c-10 -13 -26 -31 -35 -42 -10 -10 -18 -25 -18 -33 0 -9 -6 -18 -13 -21 -19 -7 -14 -46 7 -58 10 -6 32 -23 48 -38 44 -41 68 -37 35 5 -14 17 -31 31 -37 29 -6 -1 -9 2 -5 8 4 6 1 17 -5 25 -9 11 -9 15 -1 15 6 0 11 11 11 25 0 14 8 29 19 35 24 12 37 48 23 62 -7 7 -16 3 -29 -12z"/> <path d="M956 2666 c3 -8 14 -18 24 -21 10 -3 21 -13 24 -21 3 -8 9 -13 14 -10 4 2 9 -5 9 -16 3 -40 19 -39 19 1 -1 22 -4 39 -8 38 -4 -1 -13 6 -20 15 -7 9 -25 20 -41 24 -22 5 -26 3 -21 -10z"/> <path d="M1578 2673 c7 -3 16 -2 19 1 4 3 -2 6 -13 5 -11 0 -14 -3 -6 -6z"/> <path d="M1288 2663 c7 -3 16 -2 19 1 4 3 -2 6 -13 5 -11 0 -14 -3 -6 -6z"/> <path d="M1340 2666 c0 -2 7 -7 16 -10 8 -3 12 -2 9 4 -6 10 -25 14 -25 6z"/> <path d="M1430 2664 c0 -5 6 -16 13 -23 10 -12 8 -13 -8 -7 -16 6 -18 5 -7 -5 9 -10 15 -10 24 -1 10 10 8 16 -5 29 -9 10 -17 13 -17 7z"/> <path d="M1680 2665 c0 -7 30 -13 34 -7 3 4 -4 9 -15 9 -10 1 -19 0 -19 -2z"/> <path d="M1735 2659 c-4 -6 -4 -13 -1 -16 3 -4 6 -1 6 7 0 10 3 10 16 -1 14 -12 14 -14 -3 -20 -17 -7 -17 -8 0 -8 10 -1 22 -13 27 -27 6 -14 15 -22 20 -19 6 4 10 3 8 -2 -3 -12 120 -139 127 -131 8 8 -72 113 -84 113 -5 0 -20 15 -35 33 -15 17 -25 32 -21 32 11 0 -16 30 -36 41 -12 6 -20 5 -24 -2z"/> <path d="M1910 2659 c0 -5 9 -9 20 -9 11 0 20 2 20 4 0 2 -9 6 -20 9 -11 3 -20 1 -20 -4z"/> <path d="M2230 2660 c13 -9 13 -10 0 -10 -12 -1 -11 -3 3 -11 25 -15 43 0 20 17 -10 7 -22 13 -28 14 -5 0 -3 -5 5 -10z"/> <path d="M2832 2658 c-20 -20 -14 -28 21 -27 17 0 26 3 20 6 -7 2 -13 11 -13 19 0 17 -12 18 -28 2z"/> <path d="M1155 2650 c-3 -5 1 -10 10 -10 9 0 13 5 10 10 -3 6 -8 10 -10 10 -2 0 -7 -4 -10 -10z"/> <path d="M1230 2640 c20 -13 43 -13 35 0 -3 6 -16 10 -28 10 -18 0 -19 -2 -7 -10z"/> <path d="M240 2629 c0 -5 5 -7 10 -4 6 3 10 8 10 11 0 2 -4 4 -10 4 -5 0 -10 -5 -10 -11z"/> <path d="M1311 2631 l-24 -6 27 -13 c19 -8 25 -9 20 -1 -3 6 0 15 7 20 16 10 5 10 -30 0z"/> <path d="M1922 2626 c16 -8 34 -18 40 -21 7 -4 2 3 -11 14 -13 12 -31 21 -40 21 -10 0 -5 -6 11 -14z"/> <path d="M1614 2621 c3 -5 15 -7 26 -4 28 7 25 13 -6 13 -14 0 -23 -4 -20 -9z"/> <path d="M1872 2577 c40 -50 60 -59 42 -19 -4 9 -6 22 -5 27 2 6 0 7 -4 4 -3 -4 -18 4 -32 17 -45 42 -46 26 -1 -29z"/> <path d="M1205 2612 c9 -9 75 -10 70 -1 -3 4 -21 8 -40 7 -19 -1 -33 -3 -30 -6z"/> <path d="M830 2600 c0 -5 5 -10 11 -10 5 0 7 5 4 10 -3 6 -8 10 -11 10 -2 0 -4 -4 -4 -10z"/> <path d="M1636 2601 c-3 -5 0 -11 7 -14 8 -3 14 1 14 9 0 16 -13 19 -21 5z"/> <path d="M1680 2600 c8 -5 22 -9 30 -9 10 0 8 3 -5 9 -27 12 -43 12 -25 0z"/> <path d="M1988 2595 c6 -11 24 -33 40 -48 23 -22 32 -25 38 -15 4 7 4 10 0 6 -5 -4 -26 12 -48 35 -22 23 -35 33 -30 22z"/> <path d="M1474 2584 c-18 -14 -18 -15 4 -4 12 6 22 13 22 15 0 8 -5 6 -26 -11z"/> <path d="M2338 2593 c7 -3 16 -2 19 1 4 3 -2 6 -13 5 -11 0 -14 -3 -6 -6z"/> <path d="M1185 2580 c-3 -5 3 -10 14 -10 11 0 23 5 26 10 3 6 -3 10 -14 10 -11 0 -23 -4 -26 -10z"/> <path d="M1260 2580 c8 -5 20 -10 25 -10 6 0 3 5 -5 10 -8 5 -19 10 -25 10 -5 0 -3 -5 5 -10z"/> <path d="M1540 2586 c0 -2 7 -6 15 -10 8 -3 15 -1 15 4 0 6 -7 10 -15 10 -8 0 -15 -2 -15 -4z"/> <path d="M767 2574 c-4 -4 -4 -10 -1 -15 6 -10 34 0 34 12 0 10 -24 12 -33 3z"/> <path d="M1133 2565 c0 -8 4 -15 9 -15 4 0 8 4 8 9 0 6 -4 12 -8 15 -5 3 -9 -1 -9 -9z"/> <path d="M1681 2562 c13 -20 85 -62 108 -62 6 0 11 -4 11 -10 0 -5 7 -10 16 -10 24 0 0 26 -32 34 -14 4 -23 10 -20 14 2 4 -4 9 -15 9 -10 1 -33 12 -50 24 -30 21 -30 21 -18 1z"/> <path d="M1770 2550 c19 -16 39 -29 44 -30 5 0 -8 14 -29 30 -49 39 -60 39 -15 0z"/> <path d="M1930 2568 c7 -10 10 -18 6 -18 -3 0 3 -9 15 -21 34 -34 33 -14 -2 23 -17 18 -26 25 -19 16z"/> <path d="M2166 2545 c7 -18 -7 -20 -24 -3 -16 16 -15 3 1 -22 10 -17 9 -22 -1 -29 -8 -4 -13 -11 -12 -15 7 -28 -11 -23 -33 9 -15 22 -27 35 -27 30 0 -6 11 -23 24 -40 19 -23 22 -34 14 -49 -7 -13 -7 -16 1 -12 7 5 11 -2 11 -18 0 -14 6 -26 13 -26 9 0 8 -3 -2 -9 -9 -6 -12 -20 -8 -42 3 -19 0 -51 -6 -73 -12 -37 -12 -36 -13 39 0 55 -5 79 -15 86 -24 15 -27 10 -17 -33 10 -42 5 -174 -8 -260 -6 -34 -5 -40 7 -33 11 7 12 6 3 -6 -6 -8 -16 -50 -23 -94 -7 -44 -18 -109 -26 -145 -8 -36 -13 -74 -12 -85 1 -12 -5 -21 -16 -23 -15 -3 -17 1 -12 25 l6 28 -16 -27 c-9 -16 -19 -28 -23 -28 -12 0 -48 -51 -57 -80 -6 -20 -5 -22 5 -13 7 6 20 9 29 6 11 -3 12 -2 4 4 -27 19 65 93 116 93 8 0 36 -20 61 -45 39 -39 50 -44 70 -37 23 8 23 8 -7 21 -16 6 -50 31 -75 55 -35 32 -44 46 -35 55 15 15 23 14 43 -6 16 -16 18 -16 36 6 18 23 18 25 1 41 -17 15 -19 15 -33 -2 -8 -11 -25 -20 -37 -21 -12 0 -19 -5 -16 -11 3 -5 1 -6 -5 -3 -10 7 4 76 19 87 6 5 16 81 24 184 3 32 10 65 17 74 7 8 12 16 10 16 -2 1 1 13 7 27 9 24 15 27 52 25 24 -1 45 -8 47 -14 2 -7 9 -12 14 -12 6 0 8 3 5 6 -3 4 -2 15 4 25 7 14 6 19 -3 20 -14 1 -16 1 -51 -5 -12 -3 -34 -5 -48 -5 -21 -1 -28 -8 -38 -41 -18 -60 -31 -59 -24 2 4 34 13 58 24 66 25 17 41 81 38 150 -2 31 3 67 9 79 7 13 10 34 6 48 -4 15 -2 25 5 25 6 0 11 11 11 25 0 14 -4 25 -10 25 -5 0 -7 -7 -4 -15z m-24 -117 c-6 -6 -12 -6 -17 3 -5 8 -4 10 3 5 7 -4 12 0 13 11 0 12 2 13 6 5 3 -8 1 -18 -5 -24z"/> <path d="M1188 2528 c7 -7 23 -7 49 0 l38 10 -48 0 c-32 -1 -45 -4 -39 -10z"/> <path d="M2407 2526 c-3 -7 -2 -17 2 -22 17 -19 40 -131 35 -169 -3 -22 -6 -46 -6 -52 -2 -19 -49 -16 -64 5 -12 16 -13 15 -14 -5 0 -13 6 -23 14 -23 10 0 13 -10 9 -36 -4 -30 -2 -36 10 -31 9 3 18 1 21 -6 2 -7 5 -1 6 13 1 14 3 32 4 40 0 8 11 19 24 25 16 7 22 19 23 45 1 19 3 54 4 78 1 23 -2 45 -6 48 -5 3 -9 22 -9 43 0 37 -14 61 -36 61 -6 0 -14 -6 -17 -14z"/> <path d="M2688 2480 c-3 -17 -1 -33 4 -36 4 -3 8 11 8 30 0 44 -6 47 -12 6z"/> <path d="M1670 2496 c0 -9 50 -12 62 -5 8 6 -1 9 -24 9 -21 0 -38 -2 -38 -4z"/> <path d="M1230 2480 c0 -5 7 -10 16 -10 8 0 12 5 9 10 -3 6 -10 10 -16 10 -5 0 -9 -4 -9 -10z"/> <path d="M1192 2466 c7 -8 15 -12 17 -11 5 6 -10 25 -20 25 -5 0 -4 -6 3 -14z"/> <path d="M1102 2441 c1 -18 5 -34 9 -37 8 -4 0 58 -7 65 -3 3 -3 -10 -2 -28z"/> <path d="M1741 2466 c11 -9 69 -15 64 -6 -3 6 -20 10 -37 10 -17 0 -29 -2 -27 -4z"/> <path d="M2040 2450 c6 -11 13 -20 16 -20 2 0 0 9 -6 20 -6 11 -13 20 -16 20 -2 0 0 -9 6 -20z"/> <path d="M990 2449 c0 -5 4 -8 9 -5 5 4 12 0 14 -6 3 -8 6 -6 6 5 1 9 -6 17 -14 17 -8 0 -15 -5 -15 -11z"/> <path d="M1770 2439 c0 -5 9 -9 20 -9 11 0 20 2 20 4 0 2 -9 6 -20 9 -11 3 -20 1 -20 -4z"/> <path d="M725 2422 c-5 -4 -10 -32 -11 -62 -1 -81 -14 -161 -29 -184 -12 -18 -11 -24 1 -40 8 -11 14 -14 14 -8 0 7 5 12 11 12 5 0 7 -5 3 -12 -4 -6 -3 -8 3 -5 14 9 24 -18 16 -40 -6 -16 -5 -16 10 -4 16 13 16 16 -6 45 -23 31 -25 50 -14 131 11 81 20 175 16 175 -2 0 -8 -4 -14 -8z"/> <path d="M1710 2426 c0 -2 9 -6 20 -9 11 -3 18 -1 14 4 -5 9 -34 13 -34 5z"/> <path d="M2680 2415 c0 -8 -5 -14 -12 -12 -15 3 -23 -32 -10 -45 6 -6 8 0 5 16 -4 21 -2 25 11 20 12 -4 16 0 16 15 0 12 -2 21 -5 21 -3 0 -5 -7 -5 -15z"/> <path d="M1405 2410 c-3 -5 1 -10 10 -10 9 0 13 5 10 10 -3 6 -8 10 -10 10 -2 0 -7 -4 -10 -10z"/> <path d="M1264 2401 c3 -4 -17 -26 -44 -47 -46 -37 -77 -80 -66 -92 3 -2 -3 -17 -14 -32 -11 -16 -22 -52 -25 -86 l-6 -59 43 111 c44 114 87 173 121 166 10 -2 17 2 17 8 0 6 -5 8 -11 4 -8 -4 -9 0 -4 15 4 13 2 21 -5 21 -6 0 -9 -4 -6 -9z"/> <path d="M1920 2396 c0 -9 40 -13 46 -5 3 5 -6 9 -20 9 -14 0 -26 -2 -26 -4z"/> <path d="M2015 2384 c23 -17 32 -18 38 -1 3 8 -6 12 -26 13 -28 1 -29 0 -12 -12z"/> <path d="M2550 2345 c0 -32 3 -55 7 -51 7 7 5 98 -3 105 -2 2 -4 -22 -4 -54z"/> <path d="M1092 2357 c-1 -21 -6 -36 -12 -32 -5 3 -3 -7 5 -22 8 -15 15 -40 15 -55 0 -18 5 -28 15 -28 16 0 14 24 -5 80 -5 14 -11 41 -13 60 l-4 35 -1 -38z"/> <path d="M1047 2360 c-3 -11 -1 -20 4 -20 5 0 9 9 9 20 0 11 -2 20 -4 20 -2 0 -6 -9 -9 -20z"/> <path d="M2964 2356 c-9 -9 -8 -17 2 -31 16 -21 16 -21 18 18 2 30 -3 33 -20 13z"/> <path d="M1020 2286 c-29 -68 -25 -81 5 -17 14 30 23 56 20 59 -2 3 -14 -16 -25 -42z"/> <path d="M116 2301 c-4 -5 -22 -8 -41 -7 -19 2 -39 -2 -45 -9 -8 -9 11 -12 85 -11 52 1 97 5 100 8 4 3 21 2 38 -3 38 -11 197 -9 197 3 0 9 -3 10 -90 10 -36 0 -71 5 -79 11 -8 7 -12 7 -9 2 7 -12 -122 -12 -141 -1 -5 4 -12 2 -15 -3z"/> <path d="M2273 2291 c-16 -25 3 -44 29 -30 23 12 23 26 0 38 -14 7 -21 5 -29 -8z"/> <path d="M1040 2258 c-11 -24 -20 -54 -20 -68 0 -25 1 -24 20 6 19 30 36 104 24 104 -3 0 -14 -19 -24 -42z"/> <path d="M460 2281 c0 -16 28 -20 34 -5 4 9 -1 14 -14 14 -11 0 -20 -4 -20 -9z"/> <path d="M2540 2224 c-13 -33 -13 -37 3 -28 9 6 9 4 -1 -8 -13 -16 -7 -48 10 -48 6 0 7 7 4 16 -3 8 -2 12 4 9 6 -3 10 1 10 9 0 8 -5 18 -10 21 -6 3 -7 17 -4 31 8 32 -4 31 -16 -2z"/> <path d="M1414 2221 c-3 -3 -28 -6 -55 -6 -49 0 -69 -17 -27 -23 13 -2 29 -11 37 -20 13 -16 13 -16 8 1 -5 13 -1 17 18 17 15 0 23 -5 20 -12 -4 -9 18 -20 61 -33 37 -11 72 -20 78 -20 6 0 14 -4 18 -9 4 -6 15 -6 30 1 l23 11 -30 13 c-16 8 -34 19 -40 26 -13 16 -77 21 -82 6 -6 -16 -37 -5 -52 19 -12 19 -11 20 22 16 20 -2 34 -1 31 3 -5 9 -52 17 -60 10z m96 -61 c0 -5 5 -10 11 -10 5 0 7 5 4 10 -3 6 1 10 9 10 21 0 21 -19 0 -27 -8 -3 -23 2 -32 11 -10 10 -12 16 -4 16 7 0 12 -4 12 -10z"/> <path d="M989 2198 c-3 -65 -19 -98 -46 -98 -8 0 -11 -5 -8 -10 4 -6 10 -8 15 -5 4 3 11 -5 14 -18 l7 -22 10 25 c12 28 23 140 15 140 -3 0 -6 -6 -7 -12z"/> <path d="M220 2169 c0 -5 5 -7 10 -4 6 3 10 8 10 11 0 2 -4 4 -10 4 -5 0 -10 -5 -10 -11z"/> <path d="M1070 2161 c-8 -6 -18 -7 -22 -5 -11 7 -29 -43 -22 -61 4 -9 14 -20 24 -25 20 -11 17 -50 -4 -50 -6 0 -3 -5 7 -11 22 -13 29 -8 28 23 -1 46 -5 58 -18 58 -8 0 -13 6 -10 13 2 6 10 12 18 12 17 0 29 15 29 38 0 19 -8 21 -30 8z"/> <path d="M2879 2158 c-14 -11 -14 -17 -3 -37 l13 -25 6 27 c10 37 3 51 -16 35z"/> <path d="M1315 2129 c-4 -6 -14 -8 -22 -5 -8 3 -20 3 -26 -1 -12 -7 154 -59 218 -67 11 -1 30 -8 43 -15 23 -12 32 2 10 16 -7 4 -20 17 -28 28 -15 20 -14 20 8 1 13 -12 22 -14 22 -7 0 23 -73 44 -150 44 -51 0 -65 3 -45 8 30 7 30 7 3 8 -15 0 -30 -4 -33 -10z m105 -27 c0 -11 -39 -12 -45 -1 -4 5 5 9 19 9 14 0 26 -4 26 -8z m40 -16 c0 -7 3 -6 9 2 6 10 10 10 21 -3 10 -12 10 -15 -1 -15 -30 0 -59 13 -59 26 0 8 6 11 15 8 8 -4 15 -11 15 -18z"/> <path d="M2549 2129 c0 -2 -2 -13 -5 -24 -9 -48 -13 -185 -5 -185 16 0 31 193 17 208 -3 3 -6 3 -7 1z"/> <path d="M2245 2110 c-3 -5 -1 -10 4 -10 6 0 11 5 11 10 0 6 -2 10 -4 10 -3 0 -8 -4 -11 -10z"/> <path d="M1730 2100 c0 -5 5 -10 11 -10 5 0 7 5 4 10 -3 6 -8 10 -11 10 -2 0 -4 -4 -4 -10z"/> <path d="M1804 2083 c-17 -12 -17 -13 3 -13 12 0 24 -6 26 -12 4 -10 6 -10 6 0 1 6 6 12 12 12 6 0 9 -6 6 -14 -7 -18 41 -30 83 -21 33 7 37 14 18 33 -9 9 -9 12 0 12 12 0 37 -47 34 -62 -1 -4 5 -5 12 -2 9 3 16 -2 18 -13 3 -16 4 -16 10 -1 9 23 -51 88 -81 88 -12 0 -19 -4 -16 -10 3 -5 -1 -10 -9 -10 -9 0 -16 -6 -16 -12 0 -7 -8 -3 -18 8 -21 27 -63 35 -88 17z"/> <path d="M1301 2067 c33 -33 88 -57 131 -56 27 0 21 3 -27 16 -33 8 -69 23 -80 33 -35 30 -51 35 -24 7z"/> <path d="M340 2070 c0 -5 5 -10 10 -10 6 0 10 5 10 10 0 6 -4 10 -10 10 -5 0 -10 -4 -10 -10z"/> <path d="M1000 2060 c0 -11 5 -20 10 -20 6 0 10 9 10 20 0 11 -4 20 -10 20 -5 0 -10 -9 -10 -20z"/> <path d="M2247 2060 c7 -25 19 -34 28 -20 3 5 1 10 -4 10 -6 0 -11 7 -11 15 0 8 -4 15 -9 15 -5 0 -7 -9 -4 -20z"/> <path d="M340 2040 c0 -5 5 -10 11 -10 5 0 7 5 4 10 -3 6 -8 10 -11 10 -2 0 -4 -4 -4 -10z"/> <path d="M2183 1993 c0 -35 4 -63 9 -63 6 0 8 -7 5 -15 -4 -8 -2 -17 3 -20 17 -10 21 35 6 67 -8 18 -17 47 -19 63 -2 17 -4 2 -4 -32z"/> <path d="M1688 2033 c7 -3 16 -2 19 1 4 3 -2 6 -13 5 -11 0 -14 -3 -6 -6z"/> <path d="M63 2023 c-15 -5 1 -69 24 -95 10 -12 12 -18 6 -14 -8 4 -13 1 -13 -9 0 -8 -13 -23 -29 -33 -21 -13 -26 -22 -21 -36 4 -12 9 -15 13 -9 4 6 18 8 32 5 28 -5 27 -8 30 102 2 59 -16 97 -42 89z"/> <path d="M1005 2019 c-9 -14 -2 -20 14 -10 8 6 9 11 3 15 -6 3 -14 1 -17 -5z"/> <path d="M1772 2014 c-6 -3 -10 -10 -7 -15 4 -5 0 -6 -8 -3 -17 6 -31 -45 -16 -60 5 -6 9 -1 9 13 0 21 3 23 48 18 26 -3 81 -12 122 -21 86 -18 100 -19 100 -7 0 12 -56 31 -66 23 -4 -4 -4 -2 -1 4 15 25 -140 66 -181 48z m38 -19 c0 -8 -4 -15 -10 -15 -5 0 -10 7 -10 15 0 8 5 15 10 15 6 0 10 -7 10 -15z m79 -9 c34 -1 40 -26 7 -26 -14 0 -26 4 -26 10 0 5 -6 7 -13 4 -8 -3 -20 3 -28 12 -13 15 -12 16 11 9 14 -4 36 -8 49 -9z"/> <path d="M338 2003 c7 -3 16 -2 19 1 4 3 -2 6 -13 5 -11 0 -14 -3 -6 -6z"/> <path d="M1520 2002 c0 -7 -15 -13 -32 -13 -32 -2 -33 -2 -4 -6 28 -5 56 11 43 24 -4 3 -7 1 -7 -5z"/> <path d="M961 1992 c-1 -7 -13 -18 -28 -25 -16 -6 -34 -17 -41 -24 -7 -7 -19 -10 -27 -6 -11 4 -13 1 -8 -13 5 -13 3 -15 -8 -9 -8 4 -11 5 -7 0 4 -4 -1 -20 -11 -34 -38 -55 -32 -54 31 4 36 33 76 67 88 76 13 9 21 21 17 30 -4 9 -6 10 -6 1z"/> <path d="M1721 1984 c0 -11 3 -14 6 -6 3 7 2 16 -1 19 -3 4 -6 -2 -5 -13z"/> <path d="M2276 1987 c3 -10 9 -15 12 -12 3 3 0 11 -7 18 -10 9 -11 8 -5 -6z"/> <path d="M546 1982 c-3 -5 1 -20 9 -35 8 -16 10 -29 4 -33 -5 -3 -7 -10 -3 -15 4 -7 10 -6 18 0 9 7 16 7 25 -2 11 -10 12 -7 7 13 -3 14 -3 19 0 13 6 -14 24 -18 24 -5 0 4 -9 18 -20 32 -12 15 -18 18 -14 8 3 -10 1 -18 -5 -18 -6 0 -11 5 -11 11 0 15 -28 41 -34 31z"/> <path d="M1064 1971 c4 -5 2 -21 -3 -34 -8 -19 -6 -27 5 -31 11 -4 14 4 14 34 0 22 -5 40 -11 40 -5 0 -8 -4 -5 -9z"/> <path d="M1770 1944 c0 -8 4 -12 10 -9 5 3 7 0 4 -9 -3 -8 2 -19 13 -24 21 -12 114 -12 107 -1 -2 4 8 10 23 12 16 2 0 4 -35 4 -50 0 -67 5 -86 22 -27 25 -36 27 -36 5z"/> <path d="M340 1925 c0 -14 4 -25 9 -25 4 0 6 11 3 25 -2 14 -6 25 -8 25 -2 0 -4 -11 -4 -25z"/> <path d="M974 1931 c6 -10 -22 -25 -41 -22 -6 1 -15 -4 -19 -10 -5 -9 -2 -10 12 -5 11 4 6 -5 -14 -24 -27 -24 -33 -36 -28 -55 5 -18 3 -23 -7 -19 -7 2 -14 -3 -15 -13 -1 -10 -4 -27 -6 -38 -2 -11 -5 -27 -6 -35 -1 -10 -4 -9 -10 5 -6 14 -9 -2 -9 -52 -1 -39 4 -75 9 -78 6 -3 9 -23 9 -43 -1 -27 -3 -31 -6 -12 -6 31 -23 51 -23 27 0 -31 -36 -11 -58 33 l-13 25 6 -25 c2 -14 5 -36 5 -50 0 -19 2 -22 10 -10 8 13 13 12 36 -6 30 -22 35 -29 62 -94 50 -116 63 -143 82 -168 23 -29 69 -62 85 -62 6 1 -3 8 -20 17 -40 22 -15 29 26 8 25 -13 29 -19 18 -27 -10 -7 -8 -8 9 -3 12 3 22 3 22 -2 0 -5 48 -10 108 -11 59 -2 121 -5 137 -8 20 -3 51 3 85 16 30 12 69 27 87 34 18 7 41 20 53 31 11 10 28 23 39 29 53 32 109 72 137 98 l32 30 61 -119 c35 -65 67 -122 73 -128 7 -7 9 -7 7 0 -6 15 -122 249 -126 254 -6 7 -102 -42 -120 -61 -9 -10 -20 -18 -25 -18 -5 0 -16 -7 -24 -15 -12 -12 -12 -15 -2 -15 7 -1 -11 -11 -40 -24 -29 -12 -49 -25 -46 -29 4 -4 1 -7 -6 -7 -7 0 -38 -12 -68 -27 -51 -25 -63 -27 -171 -25 -146 3 -221 22 -254 66 -57 77 -113 217 -101 251 4 8 2 15 -4 15 -5 0 -10 36 -11 80 -2 68 2 86 19 110 21 29 50 41 50 20 0 -6 -7 -22 -16 -36 -9 -13 -14 -27 -11 -30 7 -7 67 109 67 128 0 8 -5 6 -11 -4 -6 -11 -22 -18 -39 -18 -35 0 -69 -52 -81 -120 -14 -88 30 -269 87 -355 37 -56 36 -70 -1 -35 -25 24 -74 118 -102 195 -20 57 -18 283 3 305 3 2 9 -2 14 -10 8 -12 10 -10 10 7 0 12 5 25 10 28 6 3 10 13 10 21 0 9 7 22 15 31 8 8 13 19 10 23 -3 5 4 14 16 20 19 11 20 10 14 -12 -6 -21 -5 -22 8 -5 18 21 41 23 33 1 -3 -9 -6 -19 -6 -24 0 -5 -13 -11 -29 -15 -16 -3 -31 -14 -34 -24 -3 -14 0 -17 14 -14 11 3 22 9 25 14 3 5 13 9 23 9 11 0 20 13 27 40 10 36 9 41 -10 53 -29 18 -58 29 -52 18z"/> <path d="M1462 1882 c-23 -27 -61 -61 -86 -77 -25 -16 -44 -30 -42 -32 9 -9 74 27 93 51 12 14 23 26 26 26 5 0 20 -41 18 -52 0 -4 5 -5 13 -2 8 3 17 1 21 -5 3 -6 17 -8 30 -5 18 4 27 -1 41 -25 16 -28 23 -31 64 -31 25 0 53 7 63 14 17 13 17 14 0 20 -10 4 -19 2 -21 -3 -4 -12 -61 -15 -78 -3 -6 4 -13 15 -17 25 -4 10 -17 17 -31 17 -72 0 -97 41 -56 93 22 28 25 37 11 37 -5 0 -27 -22 -49 -48z"/> <path d="M650 1912 c0 -5 7 -9 15 -9 8 0 15 4 15 9 0 4 -7 8 -15 8 -8 0 -15 -4 -15 -8z"/> <path d="M690 1908 c0 -9 5 -20 10 -23 13 -8 13 5 0 25 -8 13 -10 13 -10 -2z"/> <path d="M2400 1890 c-7 -14 -9 -35 -4 -59 5 -25 9 -30 12 -17 3 15 6 16 13 5 6 -10 9 -8 10 11 3 66 -12 96 -31 60z"/> <path d="M2541 1894 c0 -11 3 -14 6 -6 3 7 2 16 -1 19 -3 4 -6 -2 -5 -13z"/> <path d="M341 1874 c0 -11 3 -14 6 -6 3 7 2 16 -1 19 -3 4 -6 -2 -5 -13z"/> <path d="M441 1874 c0 -11 3 -14 6 -6 3 7 2 16 -1 19 -3 4 -6 -2 -5 -13z"/> <path d="M1620 1880 c0 -5 5 -10 11 -10 5 0 7 5 4 10 -3 6 -8 10 -11 10 -2 0 -4 -4 -4 -10z"/> <path d="M2215 1880 c-3 -5 -1 -10 4 -10 6 0 11 5 11 10 0 6 -2 10 -4 10 -3 0 -8 -4 -11 -10z"/> <path d="M2269 1853 c-5 -46 0 -75 10 -68 7 4 3 95 -4 103 -2 2 -4 -14 -6 -35z"/> <path d="M870 1852 c0 -7 -6 -12 -14 -12 -7 0 -19 -6 -25 -14 -10 -12 -8 -13 8 -9 24 6 47 31 37 40 -3 3 -6 1 -6 -5z"/> <path d="M1750 1856 c0 -3 5 -17 10 -32 8 -20 8 -36 0 -55 -10 -22 -8 -35 9 -74 25 -57 25 -59 6 -51 -8 3 -15 1 -15 -4 0 -6 5 -10 10 -10 6 0 10 -8 11 -17 1 -12 4 -9 8 7 4 14 13 24 19 23 6 -2 2 20 -9 52 -11 33 -17 66 -13 80 7 27 -12 85 -27 85 -5 0 -9 -2 -9 -4z"/> <path d="M2222 1831 c1 -18 4 -34 8 -36 8 -5 3 55 -4 63 -3 2 -4 -10 -4 -27z"/> <path d="M350 1839 c0 -5 -4 -7 -10 -4 -5 3 -10 -1 -10 -9 0 -9 6 -16 14 -16 17 0 38 24 29 33 -10 11 -23 8 -23 -4z"/> <path d="M405 1841 c-3 -5 2 -11 10 -15 8 -3 17 -1 20 3 3 5 -2 11 -10 15 -8 3 -17 1 -20 -3z"/> <path d="M0 1830 c0 -5 5 -10 10 -10 6 0 10 5 10 10 0 6 -4 10 -10 10 -5 0 -10 -4 -10 -10z"/> <path d="M295 1820 c-3 -6 1 -7 9 -4 18 7 21 14 7 14 -6 0 -13 -4 -16 -10z"/> <path d="M2730 1799 c0 -5 5 -7 10 -4 6 3 10 8 10 11 0 2 -4 4 -10 4 -5 0 -10 -5 -10 -11z"/> <path d="M176 1792 c-7 -12 7 -27 27 -28 20 -2 22 7 5 24 -14 14 -25 15 -32 4z"/> <path d="M748 1772 c-33 -35 -48 -65 -48 -96 0 -14 -3 -26 -7 -26 -5 0 -8 -15 -9 -32 -1 -42 -11 -103 -24 -148 -13 -45 -13 -53 1 -44 8 5 10 -1 5 -19 -4 -16 -2 -27 7 -30 15 -5 -10 -57 -27 -54 -6 1 -10 -6 -8 -17 2 -11 -1 -15 -7 -11 -6 3 -11 5 -11 3 -1 -2 -3 -20 -6 -42 -4 -26 -2 -41 7 -47 18 -11 -1 -32 -30 -34 -11 -1 -29 -12 -40 -26 -17 -20 -22 -22 -33 -10 -11 12 -10 13 4 8 10 -3 19 0 22 9 9 23 7 27 -9 21 -17 -7 -68 17 -58 27 4 4 0 4 -10 0 -9 -3 -17 -2 -17 3 0 10 -80 53 -99 53 -6 0 -11 3 -11 8 0 4 -34 18 -75 31 -66 21 -73 26 -65 42 22 40 8 30 -21 -16 l-30 -48 -21 20 c-12 12 -20 35 -21 56 -1 29 -3 33 -12 20 -11 -14 -14 -13 -27 6 -9 12 -19 18 -22 13 -3 -5 5 -17 18 -25 13 -9 27 -28 30 -43 4 -14 17 -42 30 -60 l23 -34 18 39 17 40 72 -26 c76 -27 208 -91 241 -117 33 -25 8 -18 -50 15 -30 17 -55 29 -55 26 0 -3 29 -22 65 -42 36 -20 65 -40 65 -45 0 -14 -41 -80 -50 -80 -14 0 -101 52 -96 57 3 3 26 -6 51 -20 25 -14 43 -22 40 -16 -4 5 -29 21 -56 35 -27 13 -47 29 -44 34 3 6 -1 7 -10 4 -14 -6 -14 -8 2 -21 22 -18 17 -16 -97 30 -47 19 -97 38 -113 41 -23 6 -27 3 -27 -16 0 -17 3 -19 9 -9 7 12 17 11 62 -5 81 -28 249 -113 249 -126 0 -6 -15 -29 -34 -52 -41 -50 -69 -103 -61 -116 3 -5 -10 -48 -30 -94 -24 -55 -34 -92 -30 -105 8 -28 25 -17 25 16 0 25 48 168 76 228 35 73 64 111 91 119 33 10 53 34 53 61 0 29 35 64 72 72 15 3 34 14 44 24 15 17 15 19 0 34 -22 22 -21 25 19 94 40 67 41 77 19 109 -15 21 -15 25 0 41 9 10 15 35 15 61 0 25 5 68 11 95 6 28 11 61 11 75 -1 13 13 41 30 63 36 45 34 59 -3 19z"/> <path d="M2640 1785 c0 -8 5 -15 10 -15 6 0 10 4 10 9 0 5 8 12 18 14 10 3 6 5 -10 6 -19 1 -28 -4 -28 -14z"/> <path d="M2231 1758 c-1 -31 19 -37 40 -12 10 13 10 17 -1 24 -9 6 -17 5 -21 -2 -4 -7 -8 -6 -12 3 -3 8 -6 2 -6 -13z"/> <path d="M784 1735 c-7 -19 -14 -40 -14 -48 0 -7 -5 -18 -12 -25 -9 -9 -9 -15 0 -24 9 -9 12 -7 12 10 0 12 5 22 10 22 6 0 9 3 8 8 -4 17 15 81 22 77 5 -3 11 -1 15 5 3 5 -1 10 -10 10 -9 0 -22 -15 -31 -35z"/> <path d="M440 1737 l-35 -18 65 6 c67 7 114 23 75 26 -11 0 -31 1 -45 2 -14 1 -41 -6 -60 -16z"/> <path d="M46 1742 c-3 -5 1 -9 9 -9 8 0 12 4 9 9 -3 4 -7 8 -9 8 -2 0 -6 -4 -9 -8z"/> <path d="M598 1743 c7 -3 16 -2 19 1 4 3 -2 6 -13 5 -11 0 -14 -3 -6 -6z"/> <path d="M1323 1735 c0 -8 4 -12 9 -9 5 3 6 10 3 15 -9 13 -12 11 -12 -6z"/> <path d="M1441 1724 c0 -11 3 -14 6 -6 3 7 2 16 -1 19 -3 4 -6 -2 -5 -13z"/> <path d="M2916 1734 c7 -3 10 -13 7 -23 -6 -23 15 -38 23 -17 7 18 -12 46 -30 45 -8 0 -8 -2 0 -5z"/> <path d="M747 1712 c-19 -20 -23 -37 -7 -27 10 6 33 45 27 45 -2 0 -11 -8 -20 -18z"/> <path d="M1480 1718 c0 -15 59 -12 74 3 6 5 -7 8 -32 6 -23 -1 -42 -5 -42 -9z"/> <path d="M2334 1706 c0 -13 4 -22 8 -20 3 2 18 0 33 -6 15 -6 24 -6 20 -1 -3 5 -1 13 5 16 18 11 -5 30 -38 33 -26 2 -30 -1 -28 -22z"/> <path d="M1370 1700 c0 -13 14 -19 54 -24 20 -3 57 -15 84 -27 49 -22 232 -61 232 -48 0 4 -8 9 -17 13 -10 3 -33 15 -52 26 -18 12 -36 18 -39 15 -3 -3 0 -5 6 -5 7 0 12 -4 12 -10 0 -18 -52 -11 -119 16 -83 34 -161 55 -161 44z"/> <path d="M1585 1700 c-8 -12 20 -24 35 -15 5 3 10 10 10 16 0 12 -37 12 -45 -1z"/> <path d="M333 1689 c-13 -5 -23 -14 -23 -21 0 -6 -7 -3 -16 8 -8 10 -13 13 -9 6 9 -18 -23 -26 -42 -11 -15 12 -16 12 -10 -3 3 -10 2 -18 -4 -18 -5 0 -39 -13 -74 -30 -35 -16 -67 -30 -70 -30 -3 0 -24 -13 -47 -30 -22 -16 -39 -30 -36 -30 3 0 50 20 105 44 56 25 127 52 159 60 31 8 67 24 78 35 24 24 19 32 -11 20z"/> <path d="M1656 1692 c-3 -5 1 -15 9 -22 16 -14 20 -3 6 19 -5 8 -11 9 -15 3z"/> <path d="M60 1671 c0 -10 30 -24 37 -17 3 3 2 9 -2 15 -8 13 -35 15 -35 2z"/> <path d="M1556 1665 c4 -8 10 -12 15 -9 11 6 2 24 -11 24 -5 0 -7 -7 -4 -15z"/> <path d="M2013 1670 c-13 -5 -23 -13 -24 -17 0 -4 -2 -16 -4 -26 -2 -10 3 -21 11 -24 29 -11 13 -22 -23 -16 l-38 6 75 -79 c56 -60 88 -105 128 -183 28 -56 52 -110 52 -120 0 -10 3 -21 7 -25 4 -3 8 -12 9 -19 1 -7 11 -46 22 -87 11 -41 26 -108 32 -147 7 -40 14 -73 17 -73 8 0 -6 134 -19 190 -15 64 -66 216 -86 255 -48 94 -95 166 -136 207 -40 39 -44 47 -31 58 9 8 13 21 9 35 -3 14 1 34 11 49 10 14 16 26 14 25 -2 0 -14 -4 -26 -9z m-23 -100 c0 -5 -4 -10 -10 -10 -5 0 -10 5 -10 10 0 6 5 10 10 10 6 0 10 -4 10 -10z"/> <path d="M110 1651 c0 -5 7 -12 16 -15 14 -5 15 -4 4 9 -14 17 -20 19 -20 6z"/> <path d="M2248 1653 c-10 -2 -18 -11 -18 -19 0 -13 14 -15 80 -12 85 3 104 13 43 21 -21 3 -49 8 -63 10 -14 3 -33 3 -42 0z"/> <path d="M516 1629 c27 -30 106 -68 126 -60 14 5 11 9 -15 19 -88 36 -107 46 -107 54 0 4 -5 8 -12 8 -6 0 -3 -9 8 -21z"/> <path d="M943 1629 c-2 -23 3 -25 10 -4 4 8 3 16 -1 19 -4 3 -9 -4 -9 -15z"/> <path d="M2410 1627 c11 -12 47 -19 142 -26 70 -5 136 -15 148 -21 27 -15 300 -19 300 -5 0 6 -50 10 -128 11 -70 1 -145 6 -167 12 -38 10 -60 13 -212 27 -35 3 -71 8 -80 12 -16 5 -16 4 -3 -10z"/> <path d="M295 1579 l-28 -56 -56 -6 c-32 -4 -73 -13 -91 -22 -23 -11 -26 -14 -10 -10 75 18 141 28 146 22 4 -3 -1 -24 -10 -47 -9 -22 -11 -40 -6 -40 6 0 10 7 10 16 0 8 5 12 10 9 6 -3 11 0 12 7 0 7 2 18 3 23 2 12 21 57 42 102 8 17 13 37 11 45 -3 7 -18 -12 -33 -43z"/> <path d="M2060 1620 c0 -5 5 -10 11 -10 5 0 7 5 4 10 -3 6 -8 10 -11 10 -2 0 -4 -4 -4 -10z"/> <path d="M2090 1616 c0 -8 4 -25 9 -38 5 -13 11 -41 15 -63 3 -22 10 -53 16 -70 9 -26 9 -24 3 15 -3 25 -7 64 -7 86 -1 23 -7 48 -14 56 -6 8 -9 18 -5 21 3 4 1 7 -5 7 -7 0 -12 -6 -12 -14z"/> <path d="M251 1594 c0 -11 3 -14 6 -6 3 7 2 16 -1 19 -3 4 -6 -2 -5 -13z"/> <path d="M1566 1595 c-4 -10 1 -15 16 -15 17 0 18 2 8 15 -7 8 -14 15 -15 15 -2 0 -5 -7 -9 -15z"/> <path d="M941 1584 c0 -11 3 -14 6 -6 3 7 2 16 -1 19 -3 4 -6 -2 -5 -13z"/> <path d="M2301 1593 c17 -4 33 -53 18 -53 -5 0 -9 -14 -9 -31 0 -17 -4 -28 -10 -24 -5 3 -10 1 -10 -4 0 -6 4 -11 9 -11 5 0 11 -9 14 -20 4 -14 0 -20 -11 -20 -11 0 -13 -3 -6 -8 21 -14 24 -44 7 -73 -20 -34 -33 -37 -40 -9 -8 30 -31 25 -25 -5 2 -15 0 -25 -7 -25 -6 0 -11 14 -11 30 0 20 5 30 15 30 12 0 15 14 15 70 0 68 -1 72 -39 113 -22 23 -43 39 -47 35 -4 -5 10 -24 30 -44 42 -40 40 -21 20 -208 l-6 -60 26 17 c14 9 32 17 40 17 8 0 22 7 30 16 15 14 17 14 22 -3 19 -56 31 -74 58 -83 37 -13 59 10 23 24 -40 15 -51 22 -56 37 -4 12 -2 12 12 0 17 -14 47 -9 47 8 0 5 -9 11 -20 13 -12 2 -21 6 -20 11 0 4 -9 16 -20 27 -11 11 -20 32 -21 48 0 15 -2 44 -4 65 -3 28 1 43 15 57 14 14 15 20 5 24 -8 3 -11 13 -8 25 5 18 1 21 -23 20 -16 -1 -22 -3 -13 -6z"/> <path d="M1460 1581 c0 -15 23 -29 75 -45 48 -16 48 -16 10 -11 -22 3 -53 8 -70 10 -30 5 -30 5 -5 -7 14 -7 27 -15 30 -19 3 -3 32 -9 65 -12 50 -5 57 -4 43 7 -16 12 -14 14 22 25 21 6 42 16 46 22 4 8 -1 8 -17 3 -37 -14 -105 -7 -154 15 -25 11 -45 16 -45 12z"/> <path d="M1746 1574 c-4 -10 -1 -14 6 -12 15 5 23 28 10 28 -5 0 -13 -7 -16 -16z"/> <path d="M2030 1573 c0 -4 5 -15 10 -23 8 -13 10 -13 10 2 0 9 -4 20 -10 23 -5 3 -10 3 -10 -2z"/> <path d="M2452 1554 c-12 -8 -22 -20 -22 -26 0 -6 8 -4 18 5 10 10 26 17 35 17 9 0 19 5 22 10 10 16 -28 12 -53 -6z"/> <path d="M550 1549 c0 -5 5 -7 10 -4 6 3 10 8 10 11 0 2 -4 4 -10 4 -5 0 -10 -5 -10 -11z"/> <path d="M2665 1553 c-11 -3 -26 -10 -32 -15 -7 -6 -19 -8 -28 -4 -8 3 -14 1 -12 -5 1 -6 -13 -19 -31 -29 -26 -14 -29 -19 -16 -24 17 -7 30 0 76 42 14 13 31 21 37 17 6 -3 18 1 27 9 16 16 14 17 -21 9z"/> <path d="M1876 1503 c7 -31 12 -38 18 -32 7 7 -6 59 -15 59 -5 0 -6 -12 -3 -27z"/> <path d="M2380 1522 c0 -12 39 -46 45 -40 6 5 -29 48 -39 48 -3 0 -6 -4 -6 -8z"/> <path d="M16 1505 c-22 -17 -17 -29 7 -19 16 6 32 34 19 34 -4 0 -16 -7 -26 -15z"/> <path d="M1153 1478 c0 -7 14 -24 31 -38 l31 -25 -29 38 c-32 41 -33 42 -33 25z"/> <path d="M2490 1465 c-13 -14 -20 -31 -17 -39 9 -24 26 -19 20 4 -4 14 1 26 13 35 11 7 16 16 13 19 -3 3 -16 -5 -29 -19z"/> <path d="M10 1460 c-18 -12 -2 -12 25 0 13 6 15 9 5 9 -8 0 -22 -4 -30 -9z"/> <path d="M1841 1459 c0 -9 8 -24 19 -34 18 -17 20 -17 14 -2 -3 9 -10 17 -14 17 -5 0 -11 8 -13 18 -4 14 -5 14 -6 1z"/> <path d="M1950 1464 c0 -5 7 -18 15 -28 8 -11 15 -16 15 -10 0 5 -7 18 -15 28 -8 11 -15 16 -15 10z"/> <path d="M2408 1464 c-2 -2 -3 -32 -1 -66 5 -82 24 -103 20 -22 -2 51 0 59 16 58 10 -1 16 3 14 9 -3 11 -42 28 -49 21z"/> <path d="M1900 1456 c0 -14 74 -147 88 -159 13 -10 14 -9 7 3 -5 8 -11 24 -12 35 -6 36 -83 149 -83 121z"/> <path d="M16 1434 c-20 -20 -21 -19 13 -19 16 0 27 4 23 9 -3 5 2 6 12 3 10 -4 24 -7 32 -7 10 0 12 -5 8 -12 -6 -9 -3 -9 9 0 9 8 21 11 26 8 5 -4 13 -1 16 5 4 5 13 8 21 5 8 -3 14 -1 14 4 0 6 8 10 17 10 9 0 14 3 10 6 -3 3 -31 0 -62 -7 -44 -10 -61 -10 -76 -1 -25 16 -45 15 -63 -4z"/> <path d="M1811 1441 c-11 -7 -11 -13 2 -32 l16 -23 -2 32 c-1 18 -2 32 -2 32 0 0 -6 -4 -14 -9z"/> <path d="M2510 1412 c1 -17 21 -37 37 -37 11 0 18 -8 19 -21 1 -12 4 -26 8 -32 3 -6 0 -12 -6 -14 -8 -3 -4 -9 10 -17 27 -15 29 -4 7 54 -10 24 -28 47 -45 57 -17 9 -30 14 -30 10z"/> <path d="M215 1400 c-3 -5 -1 -10 4 -10 6 0 11 5 11 10 0 6 -2 10 -4 10 -3 0 -8 -4 -11 -10z"/> <path d="M631 1383 c-10 -26 -10 -27 4 -9 8 11 15 23 15 28 0 15 -7 8 -19 -19z"/> <path d="M2146 1397 c3 -10 9 -15 12 -12 3 3 0 11 -7 18 -10 9 -11 8 -5 -6z"/> <path d="M1226 1391 c-3 -4 6 -17 20 -27 15 -11 38 -29 53 -40 33 -27 97 -54 125 -53 11 0 -1 7 -29 16 -48 14 -112 56 -147 95 -9 10 -19 14 -22 9z"/> <path d="M1760 1371 c0 -6 5 -13 10 -16 6 -3 10 -18 10 -33 0 -38 -23 -132 -32 -132 -5 0 -8 -4 -8 -9 0 -5 9 -7 20 -4 27 7 25 -3 -7 -51 -45 -68 -70 -95 -79 -88 -5 4 -6 3 -2 -1 3 -5 0 -20 -7 -34 -8 -15 -11 -31 -8 -36 4 -6 -1 -8 -10 -4 -10 3 -17 2 -17 -3 0 -16 26 -11 43 8 10 10 17 22 17 25 0 4 20 37 43 75 24 37 50 85 57 107 7 22 16 44 21 50 13 13 11 -58 -2 -91 -5 -16 -7 -40 -3 -54 6 -23 7 -24 14 -5 5 11 9 58 9 105 -1 47 -3 79 -6 73 -2 -7 -14 -13 -26 -13 l-22 1 21 17 21 18 -20 52 c-17 46 -37 69 -37 43z"/> <path d="M2491 1348 c-1 -16 4 -28 9 -28 6 0 10 -7 10 -16 0 -15 23 -44 34 -44 12 0 5 29 -8 37 -8 4 -21 24 -29 43 -15 34 -15 35 -16 8z"/> <path d="M2821 1338 c-8 -21 -8 -35 -1 -42 13 -13 13 -26 0 -26 -5 0 -10 7 -10 15 0 8 -4 15 -10 15 -16 0 -12 -22 8 -36 23 -18 32 -17 32 1 0 8 3 15 8 15 4 0 6 20 4 45 -5 53 -16 58 -31 13z"/> <path d="M613 1335 c-3 -9 -3 -18 -1 -21 3 -3 8 4 11 16 6 23 -1 27 -10 5z"/> <path d="M2456 1332 c-4 -13 -5 -26 -2 -29 10 -11 18 4 14 29 l-4 23 -8 -23z"/> <path d="M817 1276 c45 -80 51 -86 79 -86 17 0 24 -6 24 -19 0 -19 18 -31 46 -31 8 0 14 7 14 15 0 22 38 18 45 -4 4 -15 19 -21 61 -26 58 -8 174 1 208 16 13 5 0 6 -34 1 -30 -4 -88 -7 -129 -6 -68 1 -76 3 -93 27 -22 30 -65 36 -75 11 -7 -18 -42 19 -101 106 -25 36 -44 55 -58 56 -19 0 -19 -4 13 -60z m37 -22 c3 -8 2 -12 -4 -9 -6 3 -10 10 -10 16 0 14 7 11 14 -7z"/> <path d="M1717 1309 c-4 -15 -18 -34 -32 -43 -14 -9 -23 -21 -20 -27 4 -5 3 -9 -2 -8 -11 3 -62 -18 -93 -37 -96 -59 -232 -105 -305 -103 l-40 2 40 7 40 7 -42 2 c-23 0 -45 -4 -49 -10 -5 -8 -37 -10 -103 -6 -70 4 -88 3 -66 -4 17 -5 64 -11 105 -13 81 -4 99 -17 48 -34 l-33 -11 40 5 c22 3 65 12 95 19 30 8 72 17 93 20 20 3 37 11 37 18 0 10 85 57 104 57 16 0 3 -32 -16 -40 -13 -5 -17 -9 -10 -9 22 -2 12 -18 -28 -46 -22 -15 -40 -31 -40 -36 0 -13 60 12 60 24 0 7 14 25 31 42 22 22 29 35 24 52 -4 16 1 28 15 40 11 10 23 17 25 15 3 -1 20 5 38 14 l32 17 -19 -22 c-11 -11 -25 -21 -33 -21 -7 0 -13 -11 -13 -25 0 -23 2 -22 38 18 53 59 94 125 90 145 -3 12 -6 9 -11 -9z m-437 -239 c-8 -5 -22 -9 -30 -9 -10 0 -8 3 5 9 27 12 43 12 25 0z"/> <path d="M10 1300 c0 -12 8 -30 18 -40 25 -27 62 -103 62 -126 0 -11 -7 -30 -16 -42 -8 -12 -11 -22 -6 -22 5 0 17 15 26 34 16 34 16 35 -26 125 -43 90 -58 109 -58 71z"/> <path d="M1478 1303 c6 -2 18 -2 25 0 6 3 1 5 -13 5 -14 0 -19 -2 -12 -5z"/> <path d="M582 1271 c-6 -17 -9 -31 -6 -31 7 0 25 52 20 57 -2 2 -8 -10 -14 -26z"/> <path d="M2680 1280 c0 -10 -6 -23 -14 -27 -19 -12 -46 -68 -46 -98 0 -15 -5 -35 -10 -46 -6 -11 -8 -24 -4 -30 13 -21 33 34 37 99 0 6 4 12 9 12 4 0 8 8 8 18 0 11 9 27 20 37 11 10 20 14 20 9 0 -5 4 -3 8 4 6 9 14 7 30 -8 12 -12 22 -17 22 -11 0 5 10 7 22 3 14 -3 19 -2 14 6 -4 7 -13 12 -19 12 -7 0 -30 9 -52 20 -48 24 -45 24 -45 0z"/> <path d="M205 1280 c29 -13 147 -60 165 -66 8 -3 -3 5 -24 17 -22 12 -64 30 -94 40 -57 20 -82 24 -47 9z"/> <path d="M1458 1263 c7 -3 16 -2 19 1 4 3 -2 6 -13 5 -11 0 -14 -3 -6 -6z"/> <path d="M2860 1251 c0 -5 18 -12 39 -16 22 -4 45 -13 51 -21 15 -17 50 -1 50 23 0 14 -2 14 -20 -2 -17 -16 -20 -16 -26 -2 -3 9 -12 13 -20 10 -8 -3 -14 0 -14 6 0 6 -13 11 -30 11 -16 0 -30 -4 -30 -9z"/> <path d="M182 1241 c-11 -7 -11 -9 2 -14 10 -4 16 -1 16 8 0 17 -1 17 -18 6z"/> <path d="M2251 1234 c0 -11 3 -14 6 -6 3 7 2 16 -1 19 -3 4 -6 -2 -5 -13z"/> <path d="M217 1233 c-4 -6 0 -13 8 -17 8 -3 17 0 21 6 4 6 3 8 -4 4 -5 -3 -12 -1 -14 6 -3 8 -6 9 -11 1z"/> <path d="M256 1214 c-5 -14 -4 -15 9 -4 17 14 19 20 6 20 -5 0 -12 -7 -15 -16z"/> <path d="M1691 1176 c-13 -32 -44 -85 -68 -117 -23 -32 -40 -59 -35 -59 12 1 100 123 117 164 9 21 15 45 13 54 -2 10 -14 -9 -27 -42z"/> <path d="M130 1210 c0 -5 5 -10 11 -10 5 0 7 5 4 10 -3 6 -8 10 -11 10 -2 0 -4 -4 -4 -10z"/> <path d="M551 1204 c0 -11 3 -14 6 -6 3 7 2 16 -1 19 -3 4 -6 -2 -5 -13z"/> <path d="M1849 1198 c5 -13 18 -44 29 -70 23 -53 26 -111 10 -179 l-11 -46 -61 -2 c-44 -1 -72 4 -98 19 -50 27 -60 25 -80 -10 -21 -37 -45 -38 -59 -2 -11 26 -11 26 -35 -38 -29 -78 -29 -80 -6 -80 17 1 62 33 62 45 0 4 16 27 36 51 27 32 40 41 49 34 6 -5 14 -8 16 -5 3 2 20 -9 39 -26 25 -23 35 -27 41 -17 5 7 25 13 46 13 21 0 49 8 63 18 13 9 18 17 11 17 -10 0 -10 4 -3 13 6 6 13 29 17 50 l8 39 24 -24 c15 -15 27 -41 30 -67 4 -32 9 -41 21 -36 10 3 12 1 8 -10 -3 -8 -1 -15 3 -15 33 0 -5 93 -61 153 -19 19 -32 39 -31 44 4 12 -54 140 -67 148 -7 4 -7 -2 -1 -17z"/> <path d="M175 1190 c27 -12 43 -12 25 0 -8 5 -22 9 -30 9 -10 0 -8 -3 5 -9z"/> <path d="M305 1191 c-3 -5 0 -13 6 -17 6 -3 15 0 20 7 7 11 9 9 9 -6 0 -16 2 -17 10 -5 6 9 5 17 -3 22 -16 10 -35 10 -42 -1z"/> <path d="M40 1175 c7 -9 15 -13 17 -11 7 7 -7 26 -19 26 -6 0 -6 -6 2 -15z"/> <path d="M259 1159 c24 -11 46 -18 48 -15 4 4 -73 36 -85 35 -4 0 13 -9 37 -20z"/> <path d="M370 1166 c0 -8 5 -18 10 -21 6 -3 10 1 10 9 0 8 -4 18 -10 21 -5 3 -10 -1 -10 -9z"/> <path d="M2835 1170 c-3 -5 -1 -10 4 -10 6 0 11 5 11 10 0 6 -2 10 -4 10 -3 0 -8 -4 -11 -10z"/> <path d="M0 1158 c0 -8 9 -23 20 -33 26 -23 26 -10 0 22 -13 17 -20 20 -20 11z"/> <path d="M2785 1160 c3 -5 8 -10 11 -10 2 0 4 5 4 10 0 6 -5 10 -11 10 -5 0 -7 -4 -4 -10z"/> <path d="M401 1144 c0 -11 3 -14 6 -6 3 7 2 16 -1 19 -3 4 -6 -2 -5 -13z"/> <path d="M427 1143 c-4 -3 -7 -11 -7 -17 0 -6 5 -5 12 2 6 6 9 14 7 17 -3 3 -9 2 -12 -2z"/> <path d="M1415 1140 c-3 -5 -1 -10 4 -10 6 0 11 5 11 10 0 6 -2 10 -4 10 -3 0 -8 -4 -11 -10z"/> <path d="M1910 1147 c0 -10 71 -132 94 -162 29 -38 16 -4 -20 53 -21 31 -35 57 -33 57 2 0 -6 14 -18 30 -12 17 -23 26 -23 22z"/> <path d="M685 1130 c-4 -6 -9 -23 -11 -38 -3 -15 -12 -34 -20 -43 -16 -17 -19 -69 -5 -69 5 0 25 -33 45 -74 19 -41 39 -77 45 -81 21 -12 10 -40 -24 -64 -41 -27 -44 -38 -13 -43 30 -4 35 -34 8 -48 -16 -8 -25 -7 -42 5 -31 21 -55 19 -69 -7 -7 -13 -23 -36 -35 -51 -28 -34 -31 -57 -6 -57 15 -1 14 -2 -3 -12 -11 -6 -25 -19 -32 -27 -6 -9 -15 -13 -18 -9 -4 4 0 15 9 24 23 23 14 27 -30 15 -21 -6 -55 -8 -76 -4 -33 5 -37 3 -32 -11 4 -11 -2 -26 -16 -41 -12 -13 -20 -30 -18 -37 6 -17 -49 -58 -78 -58 -12 0 -29 11 -37 23 -9 13 -29 29 -45 36 -24 10 -31 20 -36 54 -5 26 -3 43 4 45 5 2 15 13 21 23 9 18 8 19 -10 7 -12 -7 -21 -16 -21 -21 0 -4 -12 -12 -27 -18 -28 -11 -28 -11 -5 -20 12 -4 22 -17 22 -27 0 -10 9 -28 19 -39 11 -12 17 -24 13 -29 -4 -4 1 -4 10 -1 9 3 18 3 20 -1 2 -4 18 -17 36 -30 38 -27 61 -23 110 19 18 16 30 29 27 29 -4 0 3 13 15 30 20 28 94 59 108 46 3 -3 -1 -6 -9 -6 -8 0 -20 -9 -27 -20 -7 -12 -24 -25 -37 -30 -26 -10 -32 -24 -16 -35 6 -3 19 4 30 16 l19 21 17 -36 c20 -42 29 -46 31 -11 1 16 -3 25 -13 25 -18 0 -13 30 7 41 33 17 83 39 86 37 1 -2 4 -23 8 -46 4 -32 2 -48 -9 -59 -25 -24 -17 -38 8 -15 13 12 32 22 42 22 16 0 17 2 4 13 -23 18 -40 65 -28 73 6 3 3 11 -8 19 -14 11 -16 16 -5 26 6 7 12 21 12 30 0 23 47 52 73 45 11 -3 33 2 49 10 39 20 54 13 73 -33 14 -33 14 -38 0 -45 -19 -11 -20 -38 0 -38 8 0 15 -6 15 -14 0 -8 7 -16 15 -19 10 -5 16 4 21 31 5 34 39 174 80 330 18 70 14 92 -15 92 -13 0 -25 13 -37 38 -16 38 -17 39 -64 34 -34 -3 -55 1 -74 13 -32 21 -32 25 -2 58 24 26 24 27 6 37 -24 13 -47 13 -55 0z m31 -27 c-10 -10 -19 5 -10 18 6 11 8 11 12 0 2 -7 1 -15 -2 -18z m19 -87 c16 -10 40 -16 61 -14 30 2 40 -3 79 -46 24 -27 42 -52 40 -55 -2 -4 -6 -26 -10 -50 -7 -47 -42 -131 -59 -143 -7 -5 -7 -8 2 -8 6 0 12 -5 12 -11 0 -5 -4 -7 -10 -4 -6 4 -7 -1 -3 -10 3 -10 0 -21 -8 -26 -10 -6 -10 -9 -1 -9 6 0 12 -5 12 -11 0 -5 -6 -7 -12 -3 -10 6 -10 5 -1 -7 10 -13 10 -16 -2 -16 -8 0 -19 13 -26 29 -6 16 -22 31 -35 34 -17 4 -24 13 -24 29 0 13 -7 26 -16 29 -15 6 -15 9 4 29 11 12 22 29 23 37 5 22 -10 70 -21 70 -6 0 -10 7 -10 15 0 8 -4 15 -10 15 -5 0 -7 7 -3 16 3 9 2 19 -3 23 -5 3 -21 22 -35 41 -20 27 -24 40 -18 58 5 13 13 20 19 17 5 -3 10 2 11 12 0 16 1 15 9 -3 4 -11 20 -28 35 -38z m-85 -356 c0 -5 -7 -7 -15 -4 -8 4 -15 8 -15 10 0 2 7 4 15 4 8 0 15 -4 15 -10z m186 -86 c-3 -9 -6 -20 -6 -25 0 -6 -4 -8 -9 -5 -12 8 -2 46 11 46 6 0 7 -7 4 -16z"/> <path d="M937 1109 c18 -18 35 -31 37 -28 3 3 -12 18 -32 33 l-37 29 32 -34z"/> <path d="M1318 1113 c6 -2 18 -2 25 0 6 3 1 5 -13 5 -14 0 -19 -2 -12 -5z"/> <path d="M2867 1100 c-14 -11 -30 -20 -36 -20 -11 0 -14 -12 -12 -40 1 -11 -20 -20 -71 -33 -203 -49 -308 -66 -308 -48 0 11 47 61 58 61 11 0 106 50 99 51 -26 5 -35 3 -56 -13 -13 -10 -33 -18 -44 -18 -22 0 -74 -54 -83 -85 -4 -15 -22 -26 -65 -39 -32 -9 -59 -21 -59 -26 0 -8 70 8 115 26 18 7 18 6 6 -9 -16 -20 -3 -22 23 -2 10 7 15 18 11 24 -4 7 8 11 32 11 21 1 92 12 158 26 168 36 182 37 189 25 4 -6 12 -11 18 -11 7 0 7 5 1 13 -15 21 -9 72 9 72 9 0 25 11 35 24 13 16 26 22 36 18 18 -7 23 -52 7 -62 -19 -12 -10 -25 18 -25 28 0 52 16 52 34 0 6 -5 5 -12 -2 -24 -24 -41 -14 -34 22 5 26 3 35 -10 40 -28 11 -51 7 -77 -14z"/> <path d="M1455 1099 c-18 -7 -18 -8 4 -8 24 -1 24 -2 5 -15 -10 -8 -15 -18 -11 -22 4 -4 17 1 28 12 16 17 18 23 7 31 -8 6 -21 7 -33 2z"/> <path d="M564 1085 c8 -8 17 -15 20 -15 3 0 3 7 0 15 -4 8 -13 15 -21 15 -12 0 -12 -2 1 -15z"/> <path d="M1542 1032 c-14 -69 -15 -97 -1 -63 17 42 27 98 20 110 -4 6 -12 -15 -19 -47z"/> <path d="M16 1055 c10 -8 26 -14 34 -14 11 0 10 3 -4 14 -11 8 -27 15 -35 15 -11 0 -10 -4 5 -15z"/> <path d="M1055 1024 c96 -69 225 -111 302 -99 69 12 167 69 122 72 -10 1 -19 -4 -19 -12 0 -21 -89 -50 -150 -49 -61 1 -204 54 -214 80 -3 8 -12 14 -19 14 -8 0 -20 7 -27 15 -7 8 -20 15 -29 15 -9 0 7 -16 34 -36z"/> <path d="M950 1050 c-1 -3 -3 -27 -5 -55 l-4 -50 10 40 c8 32 7 85 -1 65z"/> <path d="M36 1018 c-3 -7 -9 -28 -15 -47 -6 -19 -11 -43 -11 -55 1 -17 3 -15 14 9 15 35 29 105 21 105 -3 0 -7 -6 -9 -12z"/> <path d="M150 1016 c0 -5 86 -56 95 -56 15 0 -10 22 -45 40 -39 20 -50 23 -50 16z"/> <path d="M452 998 c-14 -14 -16 -28 -2 -28 5 0 14 9 20 20 12 22 1 27 -18 8z"/> <path d="M2020 958 c0 -14 33 -68 41 -68 6 0 0 15 -12 33 -29 41 -29 41 -29 35z"/> <path d="M1485 926 c-69 -48 -135 -109 -135 -122 0 -22 26 -5 106 69 69 65 85 93 29 53z"/> <path d="M202 861 c-18 -44 -39 -101 -46 -129 -8 -27 -24 -63 -36 -80 -24 -32 -34 -32 -91 -2 -11 6 -19 7 -19 1 0 -5 19 -16 41 -25 l42 -17 -20 -22 c-36 -39 -71 -123 -65 -154 5 -26 6 -25 16 17 19 80 115 202 243 307 34 28 73 81 73 100 0 13 -22 -1 -29 -19 -5 -13 -28 -39 -51 -58 -24 -19 -56 -48 -73 -65 l-30 -30 7 40 c8 42 65 178 78 183 5 2 8 10 8 18 0 32 -17 9 -48 -65z"/> <path d="M2854 932 c-10 -2 -28 -7 -39 -12 -11 -5 -31 -11 -45 -14 -14 -3 -56 -12 -95 -21 -38 -9 -90 -21 -115 -26 -70 -16 -152 -40 -148 -45 3 -2 49 7 104 20 54 13 117 27 139 31 77 13 250 57 259 65 8 8 -18 9 -60 2z"/> <path d="M2960 928 c-15 -6 -20 -12 -12 -15 26 -10 7 -75 -30 -101 -15 -11 -16 -17 -7 -28 6 -8 17 -14 24 -14 8 0 15 -4 17 -9 2 -5 14 -4 28 1 l25 10 -23 9 c-26 10 -40 38 -24 48 18 11 50 112 35 110 -5 0 -19 -5 -33 -11z"/> <path d="M408 923 c-3 -4 -5 -42 -6 -83 -1 -59 1 -70 9 -51 16 40 13 165 -3 134z"/> <path d="M985 903 c-3 -16 -13 -57 -22 -93 -40 -160 -69 -297 -65 -308 6 -18 20 -14 27 8 3 11 12 20 19 20 7 0 23 11 36 25 13 14 31 25 40 25 19 0 120 89 101 90 -7 0 -36 -18 -63 -40 -28 -22 -57 -40 -64 -40 -8 0 -14 -4 -14 -10 0 -5 -14 -17 -31 -26 -17 -8 -28 -11 -25 -5 4 5 9 29 12 53 4 24 10 45 15 48 4 3 9 22 11 43 1 20 5 37 8 37 3 0 6 16 7 36 1 19 7 48 13 64 7 16 9 37 6 46 -4 10 1 25 10 35 16 17 16 19 1 19 -10 0 -19 -11 -22 -27z"/> <path d="M1069 875 c-15 -25 -28 -35 -45 -35 -13 0 -24 -5 -24 -11 0 -8 13 -9 40 -5 36 6 40 4 40 -14 0 -23 -18 -59 -40 -77 -13 -11 -13 -12 3 -7 11 4 17 1 17 -10 0 -8 8 -19 18 -25 21 -11 72 -12 72 -1 0 11 70 54 76 47 3 -3 -19 -25 -50 -49 -64 -49 -76 -77 -22 -51 39 18 66 12 66 -16 0 -10 8 -22 17 -26 17 -6 32 7 59 51 7 11 15 16 20 11 4 -4 2 -13 -4 -19 -7 -7 -12 -19 -12 -27 1 -21 16 4 35 59 10 29 11 39 2 37 -7 -1 -12 9 -12 23 0 21 5 25 35 28 19 2 38 6 42 10 9 9 -65 8 -79 -1 -16 -10 -44 3 -36 17 4 6 -1 5 -10 -3 -19 -15 -23 -26 -5 -15 6 4 8 3 5 -3 -3 -5 -25 -10 -48 -11 -28 -1 -51 -10 -71 -27 -38 -32 -74 -33 -82 -2 -4 15 0 27 13 38 22 18 18 66 -8 86 -9 7 -11 13 -5 13 10 0 27 50 17 50 -2 0 -13 -16 -24 -35z m218 -226 c-41 -39 -41 -39 -53 -17 -10 19 -9 27 9 53 l22 30 -34 -27 c-47 -40 -76 -37 -31 3 54 47 71 51 101 22 l27 -25 -41 -39z"/> <path d="M2471 890 c-23 -11 -47 -18 -52 -15 -4 3 -17 -3 -29 -15 -11 -11 -24 -20 -30 -20 -5 0 -10 -3 -10 -8 0 -10 -97 -55 -118 -55 -19 0 -42 -15 -42 -29 0 -5 9 -4 21 2 11 6 28 10 37 8 11 -2 -3 -13 -36 -30 l-53 -27 -10 26 c-15 39 -18 24 -9 -37 4 -30 8 -45 9 -32 0 12 9 25 19 28 9 3 34 13 55 24 20 10 37 15 37 11 0 -14 -34 -39 -62 -46 -29 -7 -47 -50 -29 -68 8 -8 11 -3 11 16 0 15 5 27 10 27 15 0 1 -52 -21 -74 -17 -19 -18 -19 -25 10 -4 16 -10 34 -14 39 -4 6 -10 35 -14 65 -4 30 -8 64 -10 75 -3 11 -5 26 -5 33 -1 6 -5 12 -10 12 -4 0 -7 -12 -4 -27 3 -27 3 -27 -8 -5 -7 12 -16 22 -21 22 -4 0 3 -22 16 -49 30 -58 36 -133 14 -158 -29 -33 -89 -187 -92 -238 -3 -47 -3 -48 6 -15 19 72 102 270 113 270 2 0 3 -48 3 -107 -1 -65 7 -164 20 -248 11 -77 24 -166 28 -198 4 -37 11 -56 18 -54 6 3 10 9 9 14 -1 5 -4 32 -7 59 -3 27 -14 117 -25 199 -11 83 -20 164 -19 180 0 17 -1 35 -2 40 -6 26 1 56 11 49 6 -3 22 6 35 22 l24 29 -1 -55 c-1 -30 5 -107 14 -170 8 -63 19 -151 22 -195 4 -44 9 -91 10 -105 2 -14 4 -35 4 -47 1 -13 6 -23 12 -23 9 0 10 29 5 107 -9 133 -50 482 -60 504 -4 10 4 29 24 54 16 21 35 55 41 76 9 30 18 39 40 44 16 4 43 17 62 29 18 13 55 31 82 41 26 11 42 21 35 23 -8 3 -5 9 11 18 37 20 10 16 -40 -6z"/> <path d="M1318 895 c-7 -7 -86 -16 -131 -15 -25 1 -36 -3 -32 -10 13 -20 153 -6 178 19 7 7 8 11 1 11 -6 0 -13 -2 -16 -5z"/> <path d="M1913 880 c-7 -10 -9 -21 -5 -24 4 -2 12 7 19 20 13 29 3 32 -14 4z"/> <path d="M2359 880 c-13 -10 -19 -19 -13 -20 6 0 19 9 29 20 23 26 14 26 -16 0z"/> <path d="M2060 871 c0 -5 5 -13 10 -16 6 -3 10 -2 10 4 0 5 -4 13 -10 16 -5 3 -10 2 -10 -4z"/> <path d="M1470 843 c-7 -16 -13 -31 -12 -35 1 -5 -2 -8 -7 -8 -6 0 -30 -31 -55 -68 -45 -67 -56 -89 -36 -77 6 4 7 -2 1 -18 -19 -49 -48 -96 -56 -89 -5 4 -5 2 -2 -4 4 -6 0 -20 -8 -30 -15 -18 -15 -18 -8 1 3 11 2 16 -2 12 -5 -4 -9 -20 -10 -35 0 -20 -5 -26 -18 -24 -9 2 -17 -2 -17 -8 0 -6 5 -8 10 -5 14 9 12 -19 -2 -33 -7 -7 -8 -12 -4 -12 5 0 3 -7 -4 -15 -7 -8 -9 -15 -5 -15 4 0 0 -11 -9 -25 -9 -13 -16 -30 -16 -37 0 -7 9 5 21 27 11 22 46 87 77 145 67 123 72 136 77 172 2 15 21 51 43 80 39 54 69 115 60 123 -3 3 -11 -7 -18 -22z"/> <path d="M1942 855 c-11 -12 -10 -15 3 -15 8 0 15 7 15 15 0 18 -2 18 -18 0z"/> <path d="M1320 820 c-26 -36 -20 -38 15 -6 14 13 22 27 16 30 -5 4 -19 -7 -31 -24z"/> <path d="M1624 815 c11 -8 16 -21 13 -30 -7 -16 8 -21 18 -5 3 5 26 7 51 4 72 -8 174 -114 134 -139 -5 -3 -10 -14 -10 -23 0 -15 2 -15 10 -2 5 8 15 15 22 15 7 0 14 10 16 23 3 16 10 22 28 22 20 0 24 5 24 30 0 34 15 40 25 9 4 -11 9 -19 11 -16 3 2 0 16 -6 31 -14 38 2 66 40 66 28 0 48 14 33 23 -5 3 -22 2 -40 0 -23 -4 -36 -13 -45 -33 -7 -16 -17 -26 -25 -23 -9 4 -11 0 -7 -11 6 -17 -20 -66 -35 -66 -18 0 -111 94 -111 112 0 14 -4 17 -17 10 -30 -15 -85 -13 -109 3 -29 19 -45 19 -20 0z"/> <path d="M1915 799 c-4 -6 -5 -12 -2 -15 2 -3 7 2 10 11 7 17 1 20 -8 4z"/> <path d="M1505 769 c-4 -6 -5 -12 -2 -15 2 -3 7 2 10 11 7 17 1 20 -8 4z"/> <path d="M1536 763 c-6 -14 -5 -15 5 -6 7 7 10 15 7 18 -3 3 -9 -2 -12 -12z"/> <path d="M1498 717 c-16 -13 -28 -25 -28 -28 0 -3 -24 -49 -54 -103 -55 -99 -60 -126 -25 -126 23 0 25 16 3 28 -15 8 -10 21 36 98 29 49 61 98 70 109 18 21 33 45 28 45 -2 -1 -15 -11 -30 -23z"/> <path d="M1980 725 c0 -8 4 -15 10 -15 5 0 7 7 4 15 -4 8 -8 15 -10 15 -2 0 -4 -7 -4 -15z"/> <path d="M78 713 c7 -3 16 -2 19 1 4 3 -2 6 -13 5 -11 0 -14 -3 -6 -6z"/> <path d="M370 677 c0 -7 -9 -23 -21 -36 -12 -12 -19 -25 -16 -27 7 -7 47 46 47 62 0 8 -2 14 -5 14 -3 0 -5 -6 -5 -13z"/> <path d="M1820 552 c0 -16 -7 -36 -16 -43 -14 -11 -18 -11 -29 4 -17 24 -22 22 -29 -14 -4 -19 -24 -48 -51 -74 -25 -23 -45 -48 -45 -57 0 -15 -36 -31 -51 -23 -10 7 1 45 13 45 6 0 7 -7 4 -16 -3 -9 -1 -14 5 -12 6 2 10 7 10 11 -1 4 -1 14 -1 22 0 12 -7 14 -27 9 -16 -4 -33 -11 -40 -16 -7 -5 -20 -7 -30 -4 -35 11 -42 -8 -44 -111 0 -27 -5 -33 -22 -34 -12 0 -16 -3 -9 -6 20 -8 14 -25 -23 -68 -20 -22 -38 -48 -41 -57 -3 -10 -8 -18 -12 -18 -4 0 -21 -12 -38 -28 -37 -32 -50 -62 -29 -62 8 0 15 6 15 14 0 8 20 31 45 52 25 20 45 42 45 49 0 7 11 21 25 31 13 10 27 31 30 46 4 17 11 25 17 22 6 -4 8 -3 5 2 -10 17 7 32 60 52 l51 19 24 -24 c24 -23 58 -24 58 0 0 6 7 18 15 27 17 19 9 56 -18 78 -13 11 -11 17 15 42 16 17 33 30 38 30 5 0 12 15 16 33 4 17 9 27 11 20 2 -7 11 -9 19 -6 8 3 14 0 14 -6 0 -6 -9 -11 -19 -11 -12 0 -21 -9 -25 -26 -5 -20 -1 -31 18 -47 36 -32 49 -73 36 -113 -12 -35 -31 -48 -70 -45 -16 1 -43 -11 -72 -33 -25 -19 -47 -33 -49 -31 -7 6 -10 -95 -4 -115 4 -11 12 -20 18 -20 7 0 23 -9 37 -20 30 -23 80 -27 80 -6 0 14 22 34 89 82 20 13 28 24 19 24 -8 0 -28 -12 -43 -26 -15 -14 -45 -37 -67 -52 l-40 -26 -45 25 c-43 23 -45 25 -40 63 10 74 106 143 145 104 8 -8 12 -9 12 -1 0 6 15 28 34 48 l34 36 -19 42 c-10 23 -19 49 -19 58 0 9 -9 19 -21 22 -30 8 -21 41 13 45 19 2 25 8 21 18 -3 7 1 16 8 19 18 7 19 77 2 82 -9 3 -13 -6 -13 -25z m-136 -198 c20 -8 20 -32 -1 -74 -14 -29 -17 -31 -28 -17 -7 10 -17 17 -24 17 -18 0 -13 32 11 57 24 26 21 25 42 17z m-97 -20 c9 -23 -10 -48 -38 -53 -13 -1 -27 -8 -30 -13 -4 -7 -9 -6 -13 1 -4 6 -2 11 3 11 6 0 11 13 11 28 0 16 3 32 7 35 13 13 54 7 60 -9z"/> <path d="M251 551 c-50 -8 -50 -27 -1 -23 38 4 60 16 43 24 -5 2 -23 2 -42 -1z"/> <path d="M1086 543 c-6 -14 -5 -15 5 -6 7 7 10 15 7 18 -3 3 -9 -2 -12 -12z"/> <path d="M531 486 c-7 -8 -14 -34 -16 -57 -5 -42 -4 -42 11 -21 9 13 13 29 10 37 -3 8 1 21 9 29 8 8 15 17 15 20 0 11 -18 6 -29 -8z"/> <path d="M238 483 c7 -3 16 -2 19 1 4 3 -2 6 -13 5 -11 0 -14 -3 -6 -6z"/> <path d="M300 479 c0 -5 5 -7 10 -4 6 3 10 8 10 11 0 2 -4 4 -10 4 -5 0 -10 -5 -10 -11z"/> <path d="M814 456 c-29 -29 -58 -76 -47 -76 16 0 75 67 71 82 -2 12 -7 11 -24 -6z"/> <path d="M1317 397 c-41 -89 -61 -146 -53 -154 3 -3 8 8 12 23 4 16 17 49 29 74 46 92 57 121 52 126 -3 3 -21 -28 -40 -69z"/> <path d="M892 395 c0 -16 2 -22 5 -12 2 9 2 23 0 30 -3 6 -5 -1 -5 -18z"/> <path d="M11 370 c0 -19 -2 -54 -6 -78 -5 -28 -2 -65 10 -114 9 -39 18 -88 19 -108 2 -43 25 -70 58 -70 21 0 20 2 -10 20 -26 16 -31 25 -27 43 4 13 -3 59 -14 102 -23 87 -27 150 -10 161 12 7 4 53 -12 69 -6 6 -9 -3 -8 -25z"/> <path d="M615 384 c-8 -13 -15 -13 -39 -4 -20 7 -32 8 -40 0 -7 -7 -4 -10 11 -10 22 0 47 -23 36 -33 -3 -4 0 -7 7 -7 11 0 11 -3 2 -12 -9 -9 -17 -7 -34 9 -42 39 -116 32 -136 -12 -6 -14 -16 -25 -21 -25 -12 0 -2 -30 15 -47 6 -7 14 -9 18 -6 3 4 6 -3 6 -15 0 -13 -6 -22 -15 -22 -8 0 -23 -7 -34 -16 -21 -19 -19 -58 5 -85 8 -8 14 -23 14 -32 0 -15 -2 -15 -29 0 -20 12 -27 22 -23 36 9 34 -55 58 -82 31 -34 -34 -15 -74 35 -74 11 0 17 -4 14 -10 -7 -12 -15 -50 -10 -50 2 0 14 10 28 22 23 20 24 23 8 35 -15 11 -15 12 1 13 9 0 25 -11 35 -23 11 -14 24 -21 33 -18 22 9 18 53 -8 86 -12 15 -22 33 -22 40 0 12 41 35 64 35 11 0 11 9 3 45 -8 36 -13 43 -24 33 -24 -19 -26 0 -3 31 23 34 22 33 65 35 21 2 39 -7 60 -26 17 -15 32 -28 35 -28 7 0 42 111 37 116 -1 2 -7 -4 -12 -12z m-275 -269 c19 -23 -3 -43 -40 -37 -34 5 -34 6 -20 33 13 23 43 25 60 4z"/> <path d="M53 365 c3 -16 9 -51 12 -77 6 -50 19 -62 28 -28 3 11 0 18 -6 17 -6 -1 -14 21 -18 51 -4 29 -10 56 -14 60 -4 4 -5 -6 -2 -23z"/> <path d="M840 371 c0 -11 4 -22 9 -25 4 -3 6 6 3 19 -5 30 -12 33 -12 6z"/> <path d="M216 343 c-6 -14 -5 -15 5 -6 7 7 10 15 7 18 -3 3 -9 -2 -12 -12z"/> <path d="M891 344 c0 -11 3 -14 6 -6 3 7 2 16 -1 19 -3 4 -6 -2 -5 -13z"/> <path d="M1981 284 c0 -11 3 -14 6 -6 3 7 2 16 -1 19 -3 4 -6 -2 -5 -13z"/> <path d="M850 258 c0 -19 2 -20 10 -8 13 19 13 30 0 30 -5 0 -10 -10 -10 -22z"/> <path d="M1190 261 c-5 -11 -10 -28 -10 -37 0 -10 -4 -31 -10 -48 -5 -17 -16 -53 -25 -80 -8 -28 -11 -54 -7 -58 17 -17 31 19 43 107 6 50 15 100 20 113 10 27 4 29 -11 3z m-30 -205 c0 -3 -4 -8 -10 -11 -5 -3 -10 -1 -10 4 0 6 5 11 10 11 6 0 10 -2 10 -4z"/> <path d="M109 233 c-5 -32 4 -59 27 -78 6 -5 15 -28 19 -50 8 -48 21 -65 48 -65 11 0 36 -10 56 -22 l36 -21 -24 26 c-14 15 -32 27 -40 27 -29 1 -53 28 -62 71 -6 23 -17 48 -26 54 -8 6 -19 29 -22 51 l-7 39 -5 -32z"/> <path d="M808 235 c-3 -13 -2 -22 2 -20 11 7 20 45 10 45 -4 0 -10 -11 -12 -25z"/> <path d="M291 236 c-15 -17 -8 -46 10 -46 8 0 8 4 -1 15 -13 16 -6 35 15 35 21 0 28 -19 13 -37 -11 -14 -11 -15 2 -11 8 2 15 16 15 29 0 29 -35 38 -54 15z"/> <path d="M902 160 c-1 -77 0 -83 12 -61 8 14 12 30 9 37 -2 7 -8 34 -13 60 -7 45 -8 42 -8 -36z"/> <path d="M862 170 c0 -19 2 -27 5 -17 2 9 2 25 0 35 -3 9 -5 1 -5 -18z"/> <path d="M1232 120 c0 -14 2 -19 5 -12 2 6 2 18 0 25 -3 6 -5 1 -5 -13z"/> <path d="M1937 127 c-4 -10 -7 -26 -7 -35 1 -15 2 -15 11 1 6 10 9 25 7 35 -3 16 -4 15 -11 -1z"/> <path d="M836 111 c-4 -5 -29 -12 -56 -16 -27 -4 -53 -11 -56 -16 -5 -10 23 -6 99 10 36 9 37 8 37 -19 0 -16 5 -32 10 -35 13 -8 13 14 -1 54 -11 31 -23 39 -33 22z"/> <path d="M1887 79 c-10 -11 -16 -24 -13 -27 6 -6 35 27 36 41 0 11 -4 9 -23 -14z"/> <path d="M1517 48 c-10 -11 -15 -23 -11 -26 3 -4 9 -1 11 6 3 6 13 12 23 12 10 0 21 -6 23 -12 3 -8 6 -6 6 4 2 28 -31 38 -52 16z"/> <path d="M592 30 c-17 -22 -19 -30 -8 -30 12 0 46 40 46 55 0 14 -18 2 -38 -25z"/> <path d="M1381 44 c0 -11 3 -14 6 -6 3 7 2 16 -1 19 -3 4 -6 -2 -5 -13z"/> <path d="M1911 34 c0 -11 3 -14 6 -6 3 7 2 16 -1 19 -3 4 -6 -2 -5 -13z"/> <path d="M846 21 c-4 -7 -5 -15 -2 -18 9 -9 19 4 14 18 -4 11 -6 11 -12 0z"/> <path d="M428 3 c7 -3 16 -2 19 1 4 3 -2 6 -13 5 -11 0 -14 -3 -6 -6z"/> <path d="M1233 3 c9 -2 25 -2 35 0 9 3 1 5 -18 5 -19 0 -27 -2 -17 -5z"/> <path d="M1548 3 c7 -3 16 -2 19 1 4 3 -2 6 -13 5 -11 0 -14 -3 -6 -6z"/> </g> </svg> 